<?xml version="1.0" standalone="no"?>
<!DOCTYPE svg PUBLIC "-//W3C//DTD SVG 20010904//EN"
 "http://www.w3.org/TR/2001/REC-SVG-20010904/DTD/svg10.dtd">
<svg version="1.0" xmlns="http://www.w3.org/2000/svg"
 width="602.000000pt" height="602.000000pt" viewBox="0 0 602.000000 602.000000"
 preserveAspectRatio="xMidYMid meet">
<metadata>
Created by potrace 1.11, written by Peter Selinger 2001-2013
</metadata>
<g transform="translate(0.000000,602.000000) scale(0.100000,-0.100000)"
fill="#000000" stroke="none">
<path d="M3410 5699 c-19 -4 -53 -10 -75 -13 -65 -8 -225 -53 -295 -81 -538
-221 -892 -686 -960 -1260 -8 -74 -6 -316 5 -375 25 -144 65 -289 110 -392 7
-17 -26 -18 -599 -18 l-606 0 0 -135 0 -135 714 0 714 0 393 -527 c363 -486
437 -586 531 -713 18 -25 35 -47 38 -50 3 -3 44 -57 90 -120 47 -63 91 -122
97 -130 7 -8 44 -58 82 -110 39 -52 79 -106 90 -120 10 -14 64 -86 119 -160
55 -74 104 -139 109 -145 4 -5 46 -62 93 -125 47 -63 90 -122 97 -130 7 -8 76
-100 154 -205 l141 -190 -1731 -3 -1731 -2 0 -135 0 -135 1910 0 1910 0 0 124
0 123 -51 69 c-28 38 -57 74 -63 79 -7 6 -13 12 -12 15 1 4 -130 181 -290 395
-161 215 -364 487 -452 605 -89 118 -255 341 -370 495 -115 154 -305 408 -421
565 -117 157 -218 292 -224 300 -7 8 -47 62 -91 120 l-78 105 1033 3 1034 2
52 83 c82 129 169 336 188 446 3 19 8 37 10 40 4 7 10 47 24 156 9 67 7 305
-4 373 -37 242 -123 464 -257 661 -109 159 -264 311 -423 413 -174 112 -365
187 -569 224 -97 18 -375 26 -436 13z m360 -343 c14 -4 36 -8 50 -11 142 -27
352 -120 451 -199 14 -12 41 -32 60 -46 47 -35 143 -134 193 -200 129 -170
206 -350 241 -565 13 -79 13 -324 1 -375 -4 -14 -9 -41 -12 -60 -10 -59 -65
-222 -95 -282 l-29 -58 -1050 0 -1050 0 -28 58 c-46 90 -92 242 -110 357 -8
58 -8 269 1 345 4 36 14 90 23 120 8 30 19 69 23 85 33 120 140 315 228 416
160 181 315 288 530 362 54 19 101 35 106 35 4 0 20 3 35 6 15 4 42 8 61 11
18 2 35 6 38 9 6 6 302 -1 333 -8z"/>
</g>
</svg>
